<mxfile host="app.diagrams.net" modified="2024-05-25T20:59:39.103Z" agent="Mozilla/5.0 (X11; Ubuntu; Linux x86_64; rv:122.0) Gecko/20100101 Firefox/122.0" etag="L5xxdwAQiEtS7DxD-7Gd" version="24.4.8" type="device">
  <diagram name="Seite-1" id="qi9G_Z0SJHQmdBO_hYTs">
    <mxGraphModel dx="1687" dy="879" grid="1" gridSize="10" guides="1" tooltips="1" connect="1" arrows="1" fold="1" page="1" pageScale="1" pageWidth="827" pageHeight="1169" math="0" shadow="0">
      <root>
        <mxCell id="0" />
        <mxCell id="1" parent="0" />
        <mxCell id="Igx4515cKkAX0FQGIqMP-1" value="" style="rounded=0;whiteSpace=wrap;html=1;rotation=90;" vertex="1" parent="1">
          <mxGeometry x="-130" y="370" width="440" height="20" as="geometry" />
        </mxCell>
        <mxCell id="Igx4515cKkAX0FQGIqMP-2" value="" style="rounded=0;whiteSpace=wrap;html=1;rotation=90;" vertex="1" parent="1">
          <mxGeometry x="50" y="370" width="440" height="20" as="geometry" />
        </mxCell>
        <mxCell id="Igx4515cKkAX0FQGIqMP-3" value="" style="rounded=0;whiteSpace=wrap;html=1;rotation=90;" vertex="1" parent="1">
          <mxGeometry x="235" y="365" width="440" height="30" as="geometry" />
        </mxCell>
        <mxCell id="Igx4515cKkAX0FQGIqMP-4" value="" style="rounded=0;whiteSpace=wrap;html=1;rotation=90;" vertex="1" parent="1">
          <mxGeometry x="525" y="365" width="440" height="30" as="geometry" />
        </mxCell>
        <mxCell id="Igx4515cKkAX0FQGIqMP-5" value="" style="rounded=0;whiteSpace=wrap;html=1;" vertex="1" parent="1">
          <mxGeometry x="100" y="530" width="160" height="20" as="geometry" />
        </mxCell>
        <mxCell id="Igx4515cKkAX0FQGIqMP-6" value="" style="rounded=0;whiteSpace=wrap;html=1;" vertex="1" parent="1">
          <mxGeometry x="100" y="440" width="160" height="20" as="geometry" />
        </mxCell>
        <mxCell id="Igx4515cKkAX0FQGIqMP-7" value="" style="rounded=0;whiteSpace=wrap;html=1;" vertex="1" parent="1">
          <mxGeometry x="100" y="350" width="160" height="20" as="geometry" />
        </mxCell>
        <mxCell id="Igx4515cKkAX0FQGIqMP-8" value="" style="rounded=0;whiteSpace=wrap;html=1;" vertex="1" parent="1">
          <mxGeometry x="100" y="260" width="160" height="20" as="geometry" />
        </mxCell>
        <mxCell id="Igx4515cKkAX0FQGIqMP-9" value="" style="rounded=0;whiteSpace=wrap;html=1;" vertex="1" parent="1">
          <mxGeometry x="470" y="260" width="260" height="20" as="geometry" />
        </mxCell>
        <mxCell id="Igx4515cKkAX0FQGIqMP-10" value="" style="rounded=0;whiteSpace=wrap;html=1;" vertex="1" parent="1">
          <mxGeometry x="470" y="350" width="260" height="20" as="geometry" />
        </mxCell>
        <mxCell id="Igx4515cKkAX0FQGIqMP-11" value="" style="rounded=0;whiteSpace=wrap;html=1;" vertex="1" parent="1">
          <mxGeometry x="470" y="530" width="260" height="20" as="geometry" />
        </mxCell>
        <mxCell id="Igx4515cKkAX0FQGIqMP-12" value="" style="rounded=0;whiteSpace=wrap;html=1;" vertex="1" parent="1">
          <mxGeometry x="470" y="440" width="260" height="20" as="geometry" />
        </mxCell>
        <mxCell id="Igx4515cKkAX0FQGIqMP-13" value="" style="rounded=0;whiteSpace=wrap;html=1;" vertex="1" parent="1">
          <mxGeometry x="280" y="535" width="160" height="10" as="geometry" />
        </mxCell>
        <mxCell id="Igx4515cKkAX0FQGIqMP-14" value="" style="rounded=0;whiteSpace=wrap;html=1;" vertex="1" parent="1">
          <mxGeometry x="280" y="490" width="160" height="10" as="geometry" />
        </mxCell>
        <mxCell id="Igx4515cKkAX0FQGIqMP-18" value="" style="rounded=0;whiteSpace=wrap;html=1;" vertex="1" parent="1">
          <mxGeometry x="280" y="445" width="160" height="10" as="geometry" />
        </mxCell>
        <mxCell id="Igx4515cKkAX0FQGIqMP-20" value="" style="rounded=0;whiteSpace=wrap;html=1;" vertex="1" parent="1">
          <mxGeometry x="280" y="400" width="160" height="10" as="geometry" />
        </mxCell>
        <mxCell id="Igx4515cKkAX0FQGIqMP-21" value="" style="rounded=0;whiteSpace=wrap;html=1;" vertex="1" parent="1">
          <mxGeometry x="280" y="355" width="160" height="10" as="geometry" />
        </mxCell>
        <mxCell id="Igx4515cKkAX0FQGIqMP-23" value="" style="rounded=0;whiteSpace=wrap;html=1;" vertex="1" parent="1">
          <mxGeometry x="280" y="310" width="160" height="10" as="geometry" />
        </mxCell>
        <mxCell id="Igx4515cKkAX0FQGIqMP-24" value="" style="rounded=0;whiteSpace=wrap;html=1;" vertex="1" parent="1">
          <mxGeometry x="280" y="265" width="160" height="10" as="geometry" />
        </mxCell>
        <mxCell id="Igx4515cKkAX0FQGIqMP-27" value="" style="rounded=0;whiteSpace=wrap;html=1;" vertex="1" parent="1">
          <mxGeometry x="100" y="170" width="160" height="20" as="geometry" />
        </mxCell>
        <mxCell id="Igx4515cKkAX0FQGIqMP-30" value="" style="rounded=0;whiteSpace=wrap;html=1;" vertex="1" parent="1">
          <mxGeometry x="280" y="220" width="160" height="10" as="geometry" />
        </mxCell>
        <mxCell id="Igx4515cKkAX0FQGIqMP-31" value="" style="rounded=0;whiteSpace=wrap;html=1;" vertex="1" parent="1">
          <mxGeometry x="280" y="175" width="160" height="10" as="geometry" />
        </mxCell>
        <mxCell id="Igx4515cKkAX0FQGIqMP-32" value="" style="rounded=0;whiteSpace=wrap;html=1;" vertex="1" parent="1">
          <mxGeometry x="470" y="170" width="260" height="20" as="geometry" />
        </mxCell>
        <mxCell id="Igx4515cKkAX0FQGIqMP-33" value="" style="endArrow=none;html=1;rounded=0;" edge="1" parent="1">
          <mxGeometry width="50" height="50" relative="1" as="geometry">
            <mxPoint x="80" y="630" as="sourcePoint" />
            <mxPoint x="280" y="630" as="targetPoint" />
          </mxGeometry>
        </mxCell>
        <mxCell id="Igx4515cKkAX0FQGIqMP-34" value="Regalteil" style="text;html=1;align=center;verticalAlign=middle;whiteSpace=wrap;rounded=0;" vertex="1" parent="1">
          <mxGeometry x="150" y="640" width="60" height="30" as="geometry" />
        </mxCell>
        <mxCell id="Igx4515cKkAX0FQGIqMP-36" value="" style="endArrow=none;html=1;rounded=0;" edge="1" parent="1">
          <mxGeometry width="50" height="50" relative="1" as="geometry">
            <mxPoint x="80" y="650" as="sourcePoint" />
            <mxPoint x="80" y="610" as="targetPoint" />
          </mxGeometry>
        </mxCell>
        <mxCell id="Igx4515cKkAX0FQGIqMP-37" value="" style="endArrow=none;html=1;rounded=0;" edge="1" parent="1">
          <mxGeometry width="50" height="50" relative="1" as="geometry">
            <mxPoint x="279.72" y="650" as="sourcePoint" />
            <mxPoint x="279.72" y="610" as="targetPoint" />
          </mxGeometry>
        </mxCell>
        <mxCell id="Igx4515cKkAX0FQGIqMP-38" value="" style="endArrow=none;html=1;rounded=0;" edge="1" parent="1">
          <mxGeometry width="50" height="50" relative="1" as="geometry">
            <mxPoint x="440" y="630" as="sourcePoint" />
            <mxPoint x="760" y="630" as="targetPoint" />
          </mxGeometry>
        </mxCell>
        <mxCell id="Igx4515cKkAX0FQGIqMP-39" value="Regalteil" style="text;html=1;align=center;verticalAlign=middle;whiteSpace=wrap;rounded=0;" vertex="1" parent="1">
          <mxGeometry x="570" y="640" width="60" height="30" as="geometry" />
        </mxCell>
        <mxCell id="Igx4515cKkAX0FQGIqMP-40" value="" style="endArrow=none;html=1;rounded=0;" edge="1" parent="1">
          <mxGeometry width="50" height="50" relative="1" as="geometry">
            <mxPoint x="440" y="650" as="sourcePoint" />
            <mxPoint x="440" y="610" as="targetPoint" />
          </mxGeometry>
        </mxCell>
        <mxCell id="Igx4515cKkAX0FQGIqMP-41" value="" style="endArrow=none;html=1;rounded=0;" edge="1" parent="1">
          <mxGeometry width="50" height="50" relative="1" as="geometry">
            <mxPoint x="760" y="650" as="sourcePoint" />
            <mxPoint x="760" y="610" as="targetPoint" />
          </mxGeometry>
        </mxCell>
        <mxCell id="Igx4515cKkAX0FQGIqMP-46" value="" style="rounded=0;whiteSpace=wrap;html=1;fillColor=none;" vertex="1" parent="1">
          <mxGeometry x="70" y="430" width="220" height="130" as="geometry" />
        </mxCell>
        <mxCell id="Igx4515cKkAX0FQGIqMP-47" value="Regalabschnitt" style="text;html=1;align=center;verticalAlign=middle;whiteSpace=wrap;rounded=0;" vertex="1" parent="1">
          <mxGeometry x="150" y="480" width="60" height="30" as="geometry" />
        </mxCell>
        <mxCell id="Igx4515cKkAX0FQGIqMP-48" value="" style="rounded=0;whiteSpace=wrap;html=1;fillColor=none;" vertex="1" parent="1">
          <mxGeometry x="430" y="250" width="340" height="130" as="geometry" />
        </mxCell>
        <mxCell id="Igx4515cKkAX0FQGIqMP-49" value="Regalabschnitt" style="text;html=1;align=center;verticalAlign=middle;whiteSpace=wrap;rounded=0;" vertex="1" parent="1">
          <mxGeometry x="570" y="300" width="60" height="30" as="geometry" />
        </mxCell>
      </root>
    </mxGraphModel>
  </diagram>
</mxfile>
